<svg width="278" height="31" viewBox="0 0 278 31" fill="none" xmlns="http://www.w3.org/2000/svg">
<path d="M10.52 2.08C13.4533 2.08 16.0267 2.65333 18.24 3.8C20.48 4.94666 22.2 6.58667 23.4 8.72C24.6267 10.8267 25.24 13.28 25.24 16.08C25.24 18.88 24.6267 21.3333 23.4 23.44C22.2 25.52 20.48 27.1333 18.24 28.28C16.0267 29.4267 13.4533 30 10.52 30H0.76V2.08H10.52ZM10.32 25.24C13.2533 25.24 15.52 24.44 17.12 22.84C18.72 21.24 19.52 18.9867 19.52 16.08C19.52 13.1733 18.72 10.9067 17.12 9.28C15.52 7.62667 13.2533 6.8 10.32 6.8H6.36V25.24H10.32ZM27.9919 18.84C27.9919 16.6 28.4319 14.6133 29.3119 12.88C30.2185 11.1467 31.4319 9.81333 32.9519 8.88C34.4985 7.94667 36.2185 7.48 38.1119 7.48C39.7652 7.48 41.2052 7.81333 42.4319 8.48C43.6852 9.14667 44.6852 9.98667 45.4319 11V7.84H51.0719V30H45.4319V26.76C44.7119 27.8 43.7119 28.6667 42.4319 29.36C41.1785 30.0267 39.7252 30.36 38.0719 30.36C36.2052 30.36 34.4985 29.88 32.9519 28.92C31.4319 27.96 30.2185 26.6133 29.3119 24.88C28.4319 23.12 27.9919 21.1067 27.9919 18.84ZM45.4319 18.92C45.4319 17.56 45.1652 16.4 44.6319 15.44C44.0985 14.4533 43.3785 13.7067 42.4719 13.2C41.5652 12.6667 40.5919 12.4 39.5519 12.4C38.5119 12.4 37.5519 12.6533 36.6719 13.16C35.7919 13.6667 35.0719 14.4133 34.5119 15.4C33.9785 16.36 33.7119 17.5067 33.7119 18.84C33.7119 20.1733 33.9785 21.3467 34.5119 22.36C35.0719 23.3467 35.7919 24.1067 36.6719 24.64C37.5785 25.1733 38.5385 25.44 39.5519 25.44C40.5919 25.44 41.5652 25.1867 42.4719 24.68C43.3785 24.1467 44.0985 23.4 44.6319 22.44C45.1652 21.4533 45.4319 20.28 45.4319 18.92ZM62.1413 11.28C62.8613 10.1067 63.7946 9.18667 64.9413 8.52C66.1146 7.85333 67.4479 7.52 68.9413 7.52V13.4H67.4613C65.7013 13.4 64.3679 13.8133 63.4613 14.64C62.5813 15.4667 62.1413 16.9067 62.1413 18.96V30H56.5413V7.84H62.1413V11.28ZM85.8331 30L78.3131 20.56V30H72.7131V0.4H78.3131V17.24L85.7531 7.84H93.0331L83.2731 18.96L93.1131 30H85.8331ZM142.924 2.08L135.124 30H128.524L123.284 10.12L117.804 30L111.244 30.04L103.724 2.08H109.724L114.644 23.76L120.324 2.08H126.564L131.924 23.64L136.884 2.08H142.924ZM167.18 18.44C167.18 19.24 167.127 19.96 167.02 20.6H150.82C150.954 22.2 151.514 23.4533 152.5 24.36C153.487 25.2667 154.7 25.72 156.14 25.72C158.22 25.72 159.7 24.8267 160.58 23.04H166.62C165.98 25.1733 164.754 26.9333 162.94 28.32C161.127 29.68 158.9 30.36 156.26 30.36C154.127 30.36 152.207 29.8933 150.5 28.96C148.82 28 147.5 26.6533 146.54 24.92C145.607 23.1867 145.14 21.1867 145.14 18.92C145.14 16.6267 145.607 14.6133 146.54 12.88C147.474 11.1467 148.78 9.81333 150.46 8.88C152.14 7.94667 154.074 7.48 156.26 7.48C158.367 7.48 160.247 7.93333 161.9 8.84C163.58 9.74667 164.874 11.04 165.78 12.72C166.714 14.3733 167.18 16.28 167.18 18.44ZM161.38 16.84C161.354 15.4 160.834 14.2533 159.82 13.4C158.807 12.52 157.567 12.08 156.1 12.08C154.714 12.08 153.54 12.5067 152.58 13.36C151.647 14.1867 151.074 15.3467 150.86 16.84H161.38ZM169.828 18.84C169.828 16.6 170.268 14.6133 171.148 12.88C172.054 11.1467 173.268 9.81333 174.788 8.88C176.334 7.94667 178.054 7.48 179.948 7.48C181.601 7.48 183.041 7.81333 184.268 8.48C185.521 9.14667 186.521 9.98667 187.268 11V7.84H192.908V30H187.268V26.76C186.548 27.8 185.548 28.6667 184.268 29.36C183.014 30.0267 181.561 30.36 179.908 30.36C178.041 30.36 176.334 29.88 174.788 28.92C173.268 27.96 172.054 26.6133 171.148 24.88C170.268 23.12 169.828 21.1067 169.828 18.84ZM187.268 18.92C187.268 17.56 187.001 16.4 186.468 15.44C185.934 14.4533 185.214 13.7067 184.308 13.2C183.401 12.6667 182.428 12.4 181.388 12.4C180.348 12.4 179.388 12.6533 178.508 13.16C177.628 13.6667 176.908 14.4133 176.348 15.4C175.814 16.36 175.548 17.5067 175.548 18.84C175.548 20.1733 175.814 21.3467 176.348 22.36C176.908 23.3467 177.628 24.1067 178.508 24.64C179.414 25.1733 180.374 25.44 181.388 25.44C182.428 25.44 183.401 25.1867 184.308 24.68C185.214 24.1467 185.934 23.4 186.468 22.44C187.001 21.4533 187.268 20.28 187.268 18.92ZM204.897 12.44V23.16C204.897 23.9067 205.071 24.4533 205.417 24.8C205.791 25.12 206.404 25.28 207.257 25.28H209.857V30H206.337C201.617 30 199.257 27.7067 199.257 23.12V12.44H196.617V7.84H199.257V2.36H204.897V7.84H209.857V12.44H204.897ZM226.365 7.52C228.045 7.52 229.538 7.89333 230.845 8.64C232.152 9.36 233.165 10.44 233.885 11.88C234.632 13.2933 235.005 15 235.005 17V30H229.405V17.76C229.405 16 228.965 14.6533 228.085 13.72C227.205 12.76 226.005 12.28 224.485 12.28C222.938 12.28 221.712 12.76 220.805 13.72C219.925 14.6533 219.485 16 219.485 17.76V30H213.885V0.4H219.485V10.6C220.205 9.64 221.165 8.89333 222.365 8.36C223.565 7.8 224.898 7.52 226.365 7.52ZM260.93 18.44C260.93 19.24 260.877 19.96 260.77 20.6H244.57C244.704 22.2 245.264 23.4533 246.25 24.36C247.237 25.2667 248.45 25.72 249.89 25.72C251.97 25.72 253.45 24.8267 254.33 23.04H260.37C259.73 25.1733 258.504 26.9333 256.69 28.32C254.877 29.68 252.65 30.36 250.01 30.36C247.877 30.36 245.957 29.8933 244.25 28.96C242.57 28 241.25 26.6533 240.29 24.92C239.357 23.1867 238.89 21.1867 238.89 18.92C238.89 16.6267 239.357 14.6133 240.29 12.88C241.224 11.1467 242.53 9.81333 244.21 8.88C245.89 7.94667 247.824 7.48 250.01 7.48C252.117 7.48 253.997 7.93333 255.65 8.84C257.33 9.74667 258.624 11.04 259.53 12.72C260.464 14.3733 260.93 16.28 260.93 18.44ZM255.13 16.84C255.104 15.4 254.584 14.2533 253.57 13.4C252.557 12.52 251.317 12.08 249.85 12.08C248.464 12.08 247.29 12.5067 246.33 13.36C245.397 14.1867 244.824 15.3467 244.61 16.84H255.13ZM270.618 11.28C271.338 10.1067 272.271 9.18667 273.418 8.52C274.591 7.85333 275.924 7.52 277.418 7.52V13.4H275.938C274.178 13.4 272.844 13.8133 271.938 14.64C271.058 15.4667 270.618 16.9067 270.618 18.96V30H265.018V7.84H270.618V11.28Z" fill="white"/>
</svg>
